<svg width="336" height="144" viewBox="0 0 336 144" fill="none" xmlns="http://www.w3.org/2000/svg">
<g clip-path="url(#clip0_4104_558)">
<path d="M4.0295 12.3528C4.3109 12.3573 4.59038 12.3058 4.85167 12.2012C5.11295 12.0966 5.35081 11.941 5.5514 11.7436C5.75198 11.5462 5.91128 11.3108 6.02002 11.0513C6.12875 10.7917 6.18475 10.5131 6.18475 10.2316C6.18475 9.95017 6.12875 9.67155 6.02002 9.41196C5.91128 9.15237 5.75198 8.91702 5.5514 8.7196C5.35081 8.52218 5.11295 8.36665 4.85167 8.26206C4.59038 8.15747 4.3109 8.10591 4.0295 8.11039C2.87051 8.12794 1.94006 9.07254 1.94006 10.2317C1.94006 11.3909 2.87051 12.3353 4.0295 12.3528ZM36.5178 10.5548C36.7987 10.5584 37.0775 10.5062 37.3381 10.4012C37.5986 10.2962 37.8357 10.1405 38.0356 9.94314C38.2355 9.74577 38.3942 9.51066 38.5025 9.25146C38.6109 8.99227 38.6666 8.71414 38.6666 8.43322C38.6665 8.1523 38.6107 7.87419 38.5023 7.61502C38.394 7.35585 38.2352 7.12078 38.0352 6.92346C37.8353 6.72615 37.5981 6.5705 37.3376 6.46557C37.077 6.36063 36.7982 6.30849 36.5173 6.31218C35.3583 6.32973 34.428 7.27451 34.428 8.43367C34.4282 9.59284 35.3588 10.5374 36.5178 10.5548Z" fill="#FF598B"/>
<path d="M38.2393 37.8084C38.5208 37.8129 38.8002 37.7613 39.0615 37.6566C39.3228 37.552 39.5606 37.3965 39.7612 37.199C39.9617 37.0016 40.121 36.7662 40.2297 36.5066C40.3384 36.247 40.3944 35.9684 40.3943 35.6869C40.3943 35.4055 40.3383 35.1269 40.2295 34.8673C40.1207 34.6077 39.9614 34.3724 39.7608 34.175C39.5602 33.9776 39.3223 33.8221 39.061 33.7175C38.7997 33.613 38.5202 33.5615 38.2388 33.566C37.0798 33.5835 36.1496 34.5283 36.1497 35.6875C36.1499 36.8466 37.0804 37.791 38.2393 37.8084ZM12.6935 4.24281C12.9744 4.24646 13.2532 4.19428 13.5138 4.08931C13.7744 3.98435 14.0115 3.82867 14.2114 3.63133C14.4113 3.43398 14.5701 3.1989 14.6784 2.93972C14.7868 2.68053 14.8426 2.40241 14.8426 2.12149C14.8426 1.84057 14.7868 1.56245 14.6784 1.30327C14.5701 1.04409 14.4113 0.809 14.2114 0.611656C14.0115 0.414312 13.7744 0.258638 13.5138 0.15367C13.2532 0.0487018 12.9744 -0.00347109 12.6935 0.000179118C11.5343 0.0179105 10.6041 0.962328 10.6041 2.12149C10.6041 3.28066 11.5343 4.22525 12.6935 4.24281Z" fill="#FFCD59"/>
<path d="M25.2439 18.9743C24.9923 18.9743 24.744 18.9169 24.5179 18.8066C24.2918 18.6963 24.0937 18.5359 23.9388 18.3377C23.7839 18.1395 23.6762 17.9086 23.6238 17.6625C23.5715 17.4164 23.5758 17.1616 23.6366 16.9175C23.7028 16.6521 23.7569 16.3856 23.7976 16.1196C23.3005 16.3248 22.771 16.4403 22.2336 16.4606C21.2702 16.4973 20.4077 16.3349 19.6725 15.9788C18.952 15.6336 18.352 15.0796 17.9505 14.3889C17.1598 13.0184 17.228 11.2155 18.1232 9.79576C18.9766 8.4403 20.4222 7.70669 21.9893 7.82651C23.1965 7.9209 24.2545 8.37296 25.1018 9.14866C25.2562 8.71319 25.4039 8.24734 25.5448 7.7511C26.4104 4.69594 26.6962 1.62806 26.6985 1.59707C26.7181 1.38053 26.7802 1.16996 26.8812 0.97741C26.9821 0.784857 27.1201 0.614092 27.2871 0.474873C27.4541 0.335654 27.6469 0.230711 27.8545 0.16604C28.0621 0.101369 28.2804 0.078238 28.4969 0.0979694C28.9342 0.137959 29.3377 0.349889 29.6188 0.687196C29.8999 1.0245 30.0355 1.4596 29.996 1.89689C29.984 2.03427 29.6794 5.30525 28.7301 8.6554C28.2508 10.347 27.6845 11.7765 27.043 12.9177C27.0902 13.1721 27.1279 13.4331 27.156 13.7008C27.2896 14.9923 27.1832 16.3827 26.849 17.7208C26.759 18.0785 26.5523 18.396 26.2616 18.623C25.9708 18.85 25.6127 18.9738 25.2439 18.9743ZM21.6397 11.1245C21.4685 11.1245 21.1669 11.1747 20.924 11.5598C20.6916 11.9287 20.6461 12.4325 20.8187 12.7318C21.0483 13.13 21.7239 13.1647 22.1065 13.1502C22.5406 13.1337 22.9855 12.8615 23.4208 12.3654C23.3483 12.2135 23.2626 12.0684 23.1646 11.9316C22.8052 11.4324 22.3502 11.1772 21.7322 11.1288C21.7089 11.1274 21.6775 11.1245 21.6397 11.1245Z" fill="#59B2FF"/>
<path d="M20.4825 23.5107C13.6151 18.0974 6.43717 15.7521 4.45018 18.2726C4.26322 18.5123 4.12581 18.7868 4.04594 19.0802C4.03377 19.1158 4.02443 19.1523 4.018 19.1894V19.1937C3.99138 19.3068 3.9715 19.4212 3.95836 19.5371L0.070362 42.3009C-0.552384 45.9568 3.06678 48.8839 6.51221 47.5116L27.5966 39.1101C27.9684 38.9622 28.8834 38.397 29.1338 38.085C29.2002 38.02 29.2621 37.9512 29.3196 37.8784C31.3062 35.3575 27.3494 28.9254 20.4825 23.5101V23.5107Z" fill="#FFCD59"/>
<path d="M29.3173 37.8795C31.3053 35.3577 27.35 28.9243 20.4826 23.5107C13.6152 18.0969 6.43633 15.7526 4.44845 18.2744C2.46057 20.7962 6.41555 27.2296 13.283 32.6432C20.1504 38.057 27.3292 40.4013 29.3173 37.8795Z" fill="#FFCD59"/>
<path d="M28.1183 36.4109C29.7496 34.3411 26.1561 28.7876 20.0914 24.0068C14.0268 19.2256 7.78748 17.0278 6.15638 19.097C4.52474 21.1667 8.11829 26.7202 14.1829 31.5011C20.2474 36.2823 26.4869 38.4806 28.1183 36.4109Z" fill="#FFCD59"/>
<path d="M21.2302 25.9795C21.5111 25.9831 21.7899 25.9309 22.0505 25.826C22.311 25.721 22.5482 25.5653 22.7481 25.368C22.948 25.1706 23.1068 24.9356 23.2151 24.6764C23.3234 24.4172 23.3792 24.1391 23.3792 23.8582C23.3792 23.5772 23.3234 23.2991 23.2151 23.0399C23.1068 22.7807 22.948 22.5457 22.7481 22.3483C22.5482 22.151 22.311 21.9953 22.0505 21.8903C21.7899 21.7854 21.5111 21.7332 21.2302 21.7368C20.0712 21.7544 19.1407 22.699 19.1407 23.8582C19.1407 25.0173 20.0712 25.9619 21.2302 25.9795Z" fill="#59B2FF"/>
<path d="M32.6708 21.852L32.6864 21.8346C32.7057 21.8139 32.7415 21.7755 32.7931 21.7234C32.9538 21.5636 33.1211 21.4106 33.2946 21.2649C33.9322 20.7312 34.6289 20.2727 35.3711 19.8983C37.1851 18.9804 39.886 18.2314 43.4282 19.0481C44.4926 19.2935 45.5541 18.6297 45.7997 17.5655C46.0451 16.5013 45.3813 15.4395 44.3171 15.1942C39.7316 14.1369 36.0859 15.1035 33.5848 16.3702C32.5692 16.8826 31.6162 17.5106 30.7447 18.2416C30.4832 18.4614 30.2313 18.6924 29.9898 18.934C29.8961 19.0282 29.8047 19.1246 29.7157 19.2233L29.6942 19.2475L29.6867 19.2561L29.6831 19.26L29.6819 19.2614C29.6814 19.2623 29.6803 19.2632 31.1794 20.5528L29.6803 19.2632C28.9859 20.091 29.0842 21.3229 29.9011 22.03C30.718 22.7371 31.9511 22.658 32.6708 21.852ZM13.08 7.74591C12.9324 7.51168 12.7402 7.30885 12.5141 7.14905C12.2881 6.98925 12.0327 6.87562 11.7627 6.81466C11.4927 6.7537 11.2133 6.74661 10.9405 6.79381C10.6677 6.841 10.407 6.94154 10.1731 7.08967C9.93912 7.23735 9.73652 7.42969 9.57688 7.65569C9.41725 7.88169 9.30371 8.13694 9.24275 8.40684C9.18179 8.67673 9.17461 8.956 9.22161 9.22867C9.26862 9.50135 9.36889 9.76209 9.51669 9.996C9.59317 10.1183 11.1605 12.6575 11.4825 16.135C11.8103 19.6682 10.7722 22.9159 8.39246 25.8281C9.19377 26.8465 10.1581 27.905 11.2596 28.9637C12.7837 27.2024 13.9305 25.3096 14.684 23.307C15.6109 20.8433 15.9388 18.2309 15.6593 15.5432C15.2138 11.2673 13.3536 8.18024 13.08 7.74591Z" fill="#FF598B"/>
<path d="M39.4463 28.0438C40.5213 28.322 41.2811 28.6252 41.6094 28.7663C41.9931 29.0018 42.4417 29.1092 42.8905 29.0732C43.3392 29.0371 43.7649 28.8594 44.1061 28.5657C44.3321 28.3704 44.5144 28.1297 44.6412 27.8592C44.7679 27.5887 44.8362 27.2945 44.8417 26.9959C44.8492 26.5458 44.7134 26.1049 44.4539 25.737C44.1944 25.3692 43.8247 25.0933 43.3981 24.9494C42.3919 24.5026 38.5793 22.9936 33.5395 23.2617C30.1471 23.4421 26.8848 24.3817 23.844 26.0572C20.9647 27.6441 18.2911 29.8922 15.8638 32.7602C17.0219 33.5842 18.2282 34.3382 19.4764 35.0181C23.5746 30.3471 28.3032 27.8151 33.5719 27.4805C35.5475 27.3606 37.5295 27.5507 39.4463 28.0438Z" fill="#59B2FF"/>
</g>
<path d="M5.84 91.84C4.29333 92.0533 3.01333 92.16 2 92.16C1.65333 92.16 1.48 92.0267 1.48 91.76C1.48 91.1467 1.89333 90.5067 2.72 89.84C3.57333 89.1467 4.94667 88.5467 6.84 88.04C7.69333 85 8.66667 82.2133 9.76 79.68C7.09333 79.8133 4.90667 80.6933 3.2 82.32C2.77333 82.7467 2.42667 83.08 2.16 83.32C1.89333 83.56 1.65333 83.68 1.44 83.68C1.25333 83.68 1.06667 83.52 0.88 83.2C0.693333 82.88 0.6 82.4533 0.6 81.92C0.626667 79.8667 2.01333 78.2 4.76 76.92C7.50667 75.64 10.8933 75.0133 14.92 75.04L26.92 75.24C27.64 75.24 28 75.52 28 76.08C28 76.24 27.8933 76.5333 27.68 76.96C27.4667 77.36 27.28 77.8 27.12 78.28C26.7733 79.24 26.0267 79.72 24.88 79.72H23.6L18.28 79.68H15.2C14.9867 81.2 14.3467 83.68 13.28 87.12L20.6 87.24C21.0267 87.24 21.24 87.4933 21.24 88C21.24 88.16 21.1733 88.44 21.04 88.84C20.9067 89.24 20.7867 89.6533 20.68 90.08C20.4667 90.96 20.0133 91.4 19.32 91.4L13.24 91.12H12.72C12.56 91.12 12.3733 91.1333 12.16 91.16C10.7733 96.2533 10.08 100.28 10.08 103.24C10.08 104.813 8.54667 105.6 5.48 105.6C4.81333 105.6 4.41333 105.267 4.28 104.6C4.17333 103.907 4.12 103 4.12 101.88C4.12 99.48 4.69333 96.1333 5.84 91.84ZM31.7309 100.64C33.8109 100.64 35.8243 99.8133 37.7709 98.16C38.4909 97.5467 39.0776 96.9867 39.5309 96.48C39.9843 95.9467 40.3309 95.68 40.5709 95.68C40.9443 95.68 41.1309 96.0533 41.1309 96.8C41.1309 97.5467 40.9309 98.3867 40.5309 99.32C40.1309 100.227 39.4643 101.12 38.5309 102C36.2376 104.16 33.0909 105.24 29.0909 105.24C25.9176 105.24 23.7576 104.093 22.6109 101.8C22.2109 101 22.0109 99.8533 22.0109 98.36C22.0109 96.8667 22.3043 95.32 22.8909 93.72C23.4776 92.0933 24.2509 90.6933 25.2109 89.52C26.1976 88.3467 27.3309 87.44 28.6109 86.8C29.8909 86.1333 31.2509 85.8 32.6909 85.8C34.1576 85.8 35.2776 86.16 36.0509 86.88C36.8509 87.6 37.2509 88.5333 37.2509 89.68C37.2509 90.8267 36.9576 91.7733 36.3709 92.52C35.8109 93.24 35.0776 93.8533 34.1709 94.36C33.2643 94.84 32.2509 95.28 31.1309 95.68C30.0376 96.0533 28.9576 96.48 27.8909 96.96V97.96C27.9176 98.92 28.3176 99.6 29.0909 100C29.8643 100.4 30.7443 100.613 31.7309 100.64ZM31.0509 89.36C29.6643 89.36 28.7043 90.9733 28.1709 94.2C28.7309 93.8267 29.2509 93.4933 29.7309 93.2C30.2376 92.9067 30.6776 92.6267 31.0509 92.36C31.8509 91.7733 32.2643 91.1067 32.2909 90.36C32.2909 89.6933 31.8776 89.36 31.0509 89.36ZM48.2497 85.64C50.0364 85.6133 51.3697 85.9467 52.2497 86.64C53.1297 87.3067 53.5697 88.28 53.5697 89.56C53.5697 90.8133 53.183 91.8933 52.4097 92.8C51.663 93.68 50.743 94.3067 49.6497 94.68C50.423 95.48 51.1164 96.2933 51.7297 97.12C52.3697 97.9467 52.6897 98.8133 52.6897 99.72C52.6897 101.507 51.983 102.893 50.5697 103.88C49.1564 104.84 47.183 105.32 44.6497 105.32C42.143 105.32 40.263 104.827 39.0097 103.84C37.7564 102.827 37.1297 101.693 37.1297 100.44C37.1297 99.16 37.4364 98 38.0497 96.96C38.6897 95.92 39.3697 95.4 40.0897 95.4C40.5164 95.4 40.823 95.56 41.0097 95.88C41.1964 96.1733 41.543 97.0533 42.0497 98.52C42.2364 99.0533 42.543 99.56 42.9697 100.04C43.9564 101.133 45.5164 101.68 47.6497 101.68C47.3297 100.667 46.8097 99.8 46.0897 99.08C45.3964 98.3333 44.703 97.6133 44.0097 96.92C43.3164 96.2267 42.703 95.4933 42.1697 94.72C41.6364 93.92 41.3697 92.9867 41.3697 91.92C41.3697 90 42.0897 88.44 43.5297 87.24C44.8897 86.1733 46.463 85.64 48.2497 85.64ZM48.0897 93.04C49.1564 91.8933 49.6897 90.9733 49.6897 90.28C49.6897 89.96 49.5697 89.68 49.3297 89.44C49.1164 89.1733 48.7964 89.04 48.3697 89.04C47.943 89.04 47.5297 89.0933 47.1297 89.2C46.7564 89.3067 46.4497 89.3867 46.2097 89.44C46.2097 90.4533 46.8364 91.6533 48.0897 93.04ZM56.9444 102.84C56.651 102.12 56.4377 101.293 56.3044 100.36C56.171 99.4 56.1044 98.0667 56.1044 96.36C56.1044 94.6533 56.4244 92.3467 57.0644 89.44H55.2644C54.9444 89.44 54.7844 89.3067 54.7844 89.04C54.7844 88.4 54.8377 87.88 54.9444 87.48C55.0777 87.0533 55.371 86.5733 55.8244 86.04H56.7844C57.1577 86.04 57.5577 86.0267 57.9844 86C59.2644 81.8933 60.571 79.84 61.9044 79.84C62.971 79.8667 63.7177 80.5467 64.1444 81.88C64.251 82.2533 64.371 82.6533 64.5044 83.08L62.8644 85.96C64.731 86.0133 65.9044 86.04 66.3844 86.04C66.891 86.04 67.1577 86.0933 67.1844 86.2C67.2377 86.28 67.2644 86.4133 67.2644 86.6C67.2644 87.08 67.1444 87.68 66.9044 88.4C66.691 89.12 66.4377 89.4667 66.1444 89.44L62.1444 89.24C61.5844 92.4933 61.3044 95.1867 61.3044 97.32C61.3044 99.4533 61.611 100.52 62.2244 100.52C62.731 100.52 63.651 100.107 64.9844 99.28C66.3177 98.4267 67.2777 97.6133 67.8644 96.84C68.451 96.0667 68.931 95.68 69.3044 95.68C69.6777 95.68 69.8644 96.1333 69.8644 97.04C69.8644 97.9467 69.5444 98.88 68.9044 99.84C68.2644 100.773 67.451 101.64 66.4644 102.44C65.5044 103.213 64.4244 103.853 63.2244 104.36C62.051 104.867 61.0244 105.12 60.1444 105.12C59.2644 105.12 58.5844 104.92 58.1044 104.52C57.651 104.093 57.2644 103.533 56.9444 102.84ZM72.6797 105.12C70.013 105.12 68.6797 102.627 68.6797 97.64C68.6797 94.92 69.013 92.4533 69.6797 90.24C70.7197 86.8267 71.893 85.12 73.1997 85.12C73.973 85.12 74.5864 85.64 75.0397 86.68C75.413 87.48 75.5864 88.2667 75.5597 89.04C75.5597 90.1067 75.2397 91.9867 74.5997 94.68C73.9864 97.0267 73.6797 98.48 73.6797 99.04C73.6797 99.6 73.813 99.9867 74.0797 100.2C74.373 100.413 74.7064 100.52 75.0797 100.52C75.4797 100.52 75.973 100.267 76.5597 99.76C77.1464 99.2533 77.733 98.7067 78.3197 98.12C78.9064 97.5067 79.4397 96.9467 79.9197 96.44C80.4264 95.9333 80.773 95.68 80.9597 95.68C81.333 95.68 81.5197 96.1333 81.5197 97.04C81.5197 98.9067 80.573 100.733 78.6797 102.52C76.813 104.28 74.813 105.147 72.6797 105.12ZM74.3197 81.88C73.5997 80.8133 73.2397 79.6667 73.2397 78.44C73.2397 77.2133 73.4264 76.2 73.7997 75.4C74.1997 74.5733 74.573 73.9733 74.9197 73.6C75.2664 73.2 75.6664 73 76.1197 73C76.8664 73 77.5464 73.56 78.1597 74.68C78.773 75.7733 79.0797 76.6933 79.0797 77.44C79.0797 78.8267 78.5864 79.92 77.5997 80.72C76.6397 81.4933 75.5464 81.88 74.3197 81.88ZM85.8403 87.4C85.8403 89.1867 85.5203 91.2133 84.8803 93.48C84.9336 94.3333 84.9603 95.16 84.9603 95.96C84.9603 96.76 85.0136 97.4533 85.1203 98.04C85.5203 99.1067 86.027 99.76 86.6403 100C87.1736 100 87.7603 99.5467 88.4003 98.64C89.0403 97.7067 89.6936 96.6 90.3603 95.32C90.0403 94.0933 89.8803 92.9333 89.8803 91.84C89.8803 89.92 90.1736 88.52 90.7603 87.64C91.4803 86.52 92.5736 85.96 94.0403 85.96C95.507 85.96 96.4803 86.52 96.9603 87.64C97.147 88.0667 97.2403 88.5467 97.2403 89.08C97.2403 90.04 97.0003 91.0267 96.5203 92.04C96.0403 93.0267 95.267 94.3333 94.2003 95.96C94.6803 97.3733 95.4003 98.08 96.3603 98.08C97.5336 98.0533 98.547 97.64 99.4003 96.84C99.7203 96.52 99.987 96.24 100.2 96C100.44 95.76 100.68 95.64 100.92 95.64C101.294 95.64 101.48 96.08 101.48 96.96C101.48 98.6133 101 99.8267 100.04 100.6C99.107 101.347 97.9203 101.72 96.4803 101.72C94.587 101.72 93.0803 100.893 91.9603 99.24C88.8403 103.293 86.227 105.32 84.1203 105.32C83.2936 105.32 82.4803 104.147 81.6803 101.8C80.8803 99.4533 80.267 96.28 79.8403 92.28C79.5203 89.7467 79.707 87.9333 80.4003 86.84C80.987 85.9867 82.1336 85.56 83.8403 85.56C84.4803 85.56 84.9736 85.76 85.3203 86.16C85.667 86.5333 85.8403 86.9467 85.8403 87.4ZM104.477 105.12C101.81 105.12 100.477 102.627 100.477 97.64C100.477 94.92 100.81 92.4533 101.477 90.24C102.517 86.8267 103.69 85.12 104.997 85.12C105.77 85.12 106.383 85.64 106.837 86.68C107.21 87.48 107.383 88.2667 107.357 89.04C107.357 90.1067 107.037 91.9867 106.397 94.68C105.783 97.0267 105.477 98.48 105.477 99.04C105.477 99.6 105.61 99.9867 105.877 100.2C106.17 100.413 106.503 100.52 106.877 100.52C107.277 100.52 107.77 100.267 108.357 99.76C108.943 99.2533 109.53 98.7067 110.117 98.12C110.703 97.5067 111.237 96.9467 111.717 96.44C112.223 95.9333 112.57 95.68 112.757 95.68C113.13 95.68 113.317 96.1333 113.317 97.04C113.317 98.9067 112.37 100.733 110.477 102.52C108.61 104.28 106.61 105.147 104.477 105.12ZM106.117 81.88C105.397 80.8133 105.037 79.6667 105.037 78.44C105.037 77.2133 105.223 76.2 105.597 75.4C105.997 74.5733 106.37 73.9733 106.717 73.6C107.063 73.2 107.463 73 107.917 73C108.663 73 109.343 73.56 109.957 74.68C110.57 75.7733 110.877 76.6933 110.877 77.44C110.877 78.8267 110.383 79.92 109.397 80.72C108.437 81.4933 107.343 81.88 106.117 81.88ZM113.077 102.84C112.784 102.12 112.571 101.293 112.437 100.36C112.304 99.4 112.237 98.0667 112.237 96.36C112.237 94.6533 112.557 92.3467 113.197 89.44H111.397C111.077 89.44 110.917 89.3067 110.917 89.04C110.917 88.4 110.971 87.88 111.077 87.48C111.211 87.0533 111.504 86.5733 111.957 86.04H112.917C113.291 86.04 113.691 86.0267 114.117 86C115.397 81.8933 116.704 79.84 118.037 79.84C119.104 79.8667 119.851 80.5467 120.277 81.88C120.384 82.2533 120.504 82.6533 120.637 83.08L118.997 85.96C120.864 86.0133 122.037 86.04 122.517 86.04C123.024 86.04 123.291 86.0933 123.317 86.2C123.371 86.28 123.397 86.4133 123.397 86.6C123.397 87.08 123.277 87.68 123.037 88.4C122.824 89.12 122.571 89.4667 122.277 89.44L118.277 89.24C117.717 92.4933 117.437 95.1867 117.437 97.32C117.437 99.4533 117.744 100.52 118.357 100.52C118.864 100.52 119.784 100.107 121.117 99.28C122.451 98.4267 123.411 97.6133 123.997 96.84C124.584 96.0667 125.064 95.68 125.437 95.68C125.811 95.68 125.997 96.1333 125.997 97.04C125.997 97.9467 125.677 98.88 125.037 99.84C124.397 100.773 123.584 101.64 122.597 102.44C121.637 103.213 120.557 103.853 119.357 104.36C118.184 104.867 117.157 105.12 116.277 105.12C115.397 105.12 114.717 104.92 114.237 104.52C113.784 104.093 113.397 103.533 113.077 102.84ZM133.333 100.64C135.413 100.64 137.426 99.8133 139.373 98.16C140.093 97.5467 140.679 96.9867 141.133 96.48C141.586 95.9467 141.933 95.68 142.173 95.68C142.546 95.68 142.733 96.0533 142.733 96.8C142.733 97.5467 142.533 98.3867 142.133 99.32C141.733 100.227 141.066 101.12 140.133 102C137.839 104.16 134.693 105.24 130.693 105.24C127.519 105.24 125.359 104.093 124.213 101.8C123.813 101 123.613 99.8533 123.613 98.36C123.613 96.8667 123.906 95.32 124.493 93.72C125.079 92.0933 125.853 90.6933 126.813 89.52C127.799 88.3467 128.933 87.44 130.213 86.8C131.493 86.1333 132.853 85.8 134.293 85.8C135.759 85.8 136.879 86.16 137.653 86.88C138.453 87.6 138.853 88.5333 138.853 89.68C138.853 90.8267 138.559 91.7733 137.973 92.52C137.413 93.24 136.679 93.8533 135.773 94.36C134.866 94.84 133.853 95.28 132.733 95.68C131.639 96.0533 130.559 96.48 129.493 96.96V97.96C129.519 98.92 129.919 99.6 130.693 100C131.466 100.4 132.346 100.613 133.333 100.64ZM132.653 89.36C131.266 89.36 130.306 90.9733 129.773 94.2C130.333 93.8267 130.853 93.4933 131.333 93.2C131.839 92.9067 132.279 92.6267 132.653 92.36C133.453 91.7733 133.866 91.1067 133.893 90.36C133.893 89.6933 133.479 89.36 132.653 89.36Z" fill="#FF598B"/>
<path d="M6.46094 128.141C5.73177 128.141 5.08073 128.266 4.50781 128.516C3.9349 128.76 3.45052 129.109 3.05469 129.562C2.65885 130.016 2.35677 130.557 2.14844 131.188C1.9401 131.812 1.83594 132.503 1.83594 133.258C1.83594 134.299 2 135.211 2.32812 135.992C2.65625 136.768 3.14844 137.37 3.80469 137.797C4.46615 138.224 5.28906 138.438 6.27344 138.438C6.84635 138.438 7.36719 138.396 7.83594 138.312C8.30469 138.224 8.73958 138.112 9.14062 137.977V138.68C8.76042 138.82 8.33073 138.935 7.85156 139.023C7.3776 139.112 6.82552 139.156 6.19531 139.156C5.05469 139.156 4.09635 138.911 3.32031 138.422C2.54948 137.932 1.96875 137.245 1.57812 136.359C1.1875 135.474 0.992188 134.44 0.992188 133.258C0.992188 132.409 1.11458 131.63 1.35938 130.922C1.60417 130.208 1.96094 129.591 2.42969 129.07C2.90365 128.544 3.47917 128.138 4.15625 127.852C4.83333 127.56 5.60417 127.414 6.46875 127.414C7.01562 127.414 7.53646 127.469 8.03125 127.578C8.53125 127.682 9 127.836 9.4375 128.039L9.125 128.742C8.70312 128.534 8.27083 128.383 7.82812 128.289C7.38542 128.19 6.92969 128.141 6.46094 128.141ZM14.7266 130.359C14.9505 130.359 15.1615 130.372 15.3594 130.398C15.5573 130.424 15.7422 130.461 15.9141 130.508L15.7891 131.234C15.6172 131.188 15.4427 131.154 15.2656 131.133C15.0885 131.107 14.8984 131.094 14.6953 131.094C14.2943 131.094 13.9349 131.169 13.6172 131.32C13.3047 131.471 13.0391 131.688 12.8203 131.969C12.6016 132.25 12.4349 132.589 12.3203 132.984C12.2057 133.38 12.1484 133.823 12.1484 134.312V139H11.3516V130.508H12.0312L12.1094 132.109H12.1562C12.2865 131.781 12.4688 131.487 12.7031 131.227C12.9427 130.961 13.2318 130.75 13.5703 130.594C13.9089 130.438 14.2943 130.359 14.7266 130.359ZM18.3672 130.508V139H17.5781V130.508H18.3672ZM17.9844 127.367C18.1823 127.367 18.3281 127.427 18.4219 127.547C18.5156 127.661 18.5625 127.818 18.5625 128.016C18.5625 128.214 18.5156 128.37 18.4219 128.484C18.3281 128.599 18.1823 128.656 17.9844 128.656C17.7969 128.656 17.6562 128.599 17.5625 128.484C17.4688 128.37 17.4219 128.214 17.4219 128.016C17.4219 127.818 17.4688 127.661 17.5625 127.547C17.6562 127.427 17.7969 127.367 17.9844 127.367ZM24.4219 130.344C25.1458 130.344 25.7474 130.513 26.2266 130.852C26.7109 131.19 27.0703 131.654 27.3047 132.242C27.5443 132.831 27.6641 133.505 27.6641 134.266V134.836H21.5312C21.5312 136.003 21.7995 136.898 22.3359 137.523C22.8776 138.148 23.651 138.461 24.6562 138.461C25.1823 138.461 25.638 138.419 26.0234 138.336C26.4141 138.247 26.8464 138.099 27.3203 137.891V138.617C26.9036 138.805 26.487 138.94 26.0703 139.023C25.6536 139.112 25.1745 139.156 24.6328 139.156C23.7734 139.156 23.0521 138.979 22.4688 138.625C21.8906 138.266 21.4531 137.76 21.1562 137.109C20.8646 136.458 20.7188 135.698 20.7188 134.828C20.7188 133.979 20.8594 133.216 21.1406 132.539C21.4271 131.862 21.8438 131.328 22.3906 130.938C22.9427 130.542 23.6198 130.344 24.4219 130.344ZM24.4141 131.023C23.6016 131.023 22.9427 131.294 22.4375 131.836C21.9375 132.372 21.6432 133.148 21.5547 134.164H26.8438C26.8438 133.544 26.7552 132.997 26.5781 132.523C26.401 132.049 26.1328 131.682 25.7734 131.422C25.4193 131.156 24.9661 131.023 24.4141 131.023ZM40.7578 130.508V139H40.1172L40 137.469H39.9531C39.8073 137.781 39.6016 138.065 39.3359 138.32C39.0703 138.576 38.7448 138.779 38.3594 138.93C37.974 139.081 37.526 139.156 37.0156 139.156C36.3646 139.156 35.8177 139.044 35.375 138.82C34.9375 138.591 34.6068 138.247 34.3828 137.789C34.1589 137.331 34.0469 136.758 34.0469 136.07V130.508H34.8359V135.992C34.8359 136.841 35.026 137.466 35.4062 137.867C35.7917 138.268 36.3542 138.469 37.0938 138.469C37.7188 138.469 38.2422 138.349 38.6641 138.109C39.0911 137.87 39.4141 137.508 39.6328 137.023C39.8568 136.534 39.9688 135.924 39.9688 135.195V130.508H40.7578ZM52.375 130.344C53.1927 130.344 53.8385 130.581 54.3125 131.055C54.7865 131.529 55.0234 132.276 55.0234 133.297V139H54.25V133.328C54.25 132.542 54.0703 131.964 53.7109 131.594C53.3516 131.224 52.8776 131.039 52.2891 131.039C51.4818 131.039 50.849 131.276 50.3906 131.75C49.9375 132.219 49.7109 132.958 49.7109 133.969V139H48.9297V133.328C48.9297 132.802 48.8464 132.372 48.6797 132.039C48.5182 131.701 48.2917 131.451 48 131.289C47.7083 131.122 47.3646 131.039 46.9688 131.039C46.4427 131.039 45.987 131.148 45.6016 131.367C45.2161 131.581 44.9193 131.914 44.7109 132.367C44.5026 132.815 44.3984 133.385 44.3984 134.078V139H43.6094V130.508H44.25L44.3672 131.898H44.4141C44.5547 131.622 44.7422 131.367 44.9766 131.133C45.2109 130.898 45.5 130.708 45.8438 130.562C46.1927 130.417 46.6016 130.344 47.0703 130.344C47.6797 130.344 48.1953 130.482 48.6172 130.758C49.0443 131.029 49.3411 131.432 49.5078 131.969H49.5625C49.7917 131.458 50.1458 131.06 50.625 130.773C51.1094 130.487 51.6927 130.344 52.375 130.344ZM65.3125 139.156C64.4688 139.156 63.7552 138.982 63.1719 138.633C62.5938 138.279 62.1562 137.776 61.8594 137.125C61.5677 136.469 61.4219 135.693 61.4219 134.797C61.4219 133.865 61.5911 133.068 61.9297 132.406C62.2682 131.74 62.7448 131.229 63.3594 130.875C63.974 130.521 64.6953 130.344 65.5234 130.344C65.9297 130.344 66.3073 130.38 66.6562 130.453C67.0052 130.526 67.3203 130.628 67.6016 130.758L67.3906 131.453C67.099 131.323 66.7891 131.224 66.4609 131.156C66.1328 131.089 65.8177 131.055 65.5156 131.055C64.8177 131.055 64.224 131.208 63.7344 131.516C63.25 131.818 62.8776 132.25 62.6172 132.812C62.362 133.37 62.2344 134.029 62.2344 134.789C62.2344 135.503 62.3438 136.135 62.5625 136.688C62.7812 137.234 63.1172 137.667 63.5703 137.984C64.0234 138.297 64.6042 138.453 65.3125 138.453C65.724 138.453 66.1146 138.411 66.4844 138.328C66.8594 138.245 67.2005 138.138 67.5078 138.008V138.727C67.2318 138.852 66.9115 138.953 66.5469 139.031C66.1875 139.115 65.776 139.156 65.3125 139.156ZM76.5625 134.742C76.5625 135.398 76.4818 135.997 76.3203 136.539C76.1589 137.076 75.9193 137.539 75.6016 137.93C75.2839 138.32 74.888 138.622 74.4141 138.836C73.9453 139.049 73.3984 139.156 72.7734 139.156C72.1797 139.156 71.651 139.052 71.1875 138.844C70.724 138.63 70.3307 138.328 70.0078 137.938C69.6901 137.547 69.4479 137.083 69.2812 136.547C69.1146 136.005 69.0312 135.404 69.0312 134.742C69.0312 133.831 69.1823 133.047 69.4844 132.391C69.7917 131.729 70.2292 131.224 70.7969 130.875C71.3698 130.521 72.0547 130.344 72.8516 130.344C73.6745 130.344 74.3594 130.531 74.9062 130.906C75.4583 131.276 75.8724 131.792 76.1484 132.453C76.4245 133.115 76.5625 133.878 76.5625 134.742ZM69.8438 134.742C69.8438 135.487 69.9505 136.138 70.1641 136.695C70.3776 137.253 70.7005 137.688 71.1328 138C71.5703 138.312 72.1224 138.469 72.7891 138.469C73.4714 138.469 74.0312 138.312 74.4688 138C74.9062 137.688 75.2292 137.25 75.4375 136.688C75.6458 136.125 75.75 135.477 75.75 134.742C75.75 134.029 75.651 133.393 75.4531 132.836C75.2552 132.279 74.9427 131.841 74.5156 131.523C74.0885 131.201 73.5312 131.039 72.8438 131.039C71.8594 131.039 71.112 131.367 70.6016 132.023C70.0964 132.68 69.8438 133.586 69.8438 134.742ZM82.6484 130.344C83.6016 130.344 84.3333 130.594 84.8438 131.094C85.3542 131.594 85.6094 132.378 85.6094 133.445V139H84.8281V133.492C84.8281 132.648 84.6354 132.029 84.25 131.633C83.8646 131.237 83.3047 131.039 82.5703 131.039C81.638 131.039 80.9245 131.312 80.4297 131.859C79.9401 132.401 79.6953 133.221 79.6953 134.32V139H78.9062V130.508H79.5469L79.6641 132.055H79.7109C79.862 131.737 80.0677 131.451 80.3281 131.195C80.5938 130.935 80.9193 130.729 81.3047 130.578C81.6901 130.422 82.138 130.344 82.6484 130.344ZM90.2109 139L86.9531 130.508H87.7891L89.9688 136.297C90.1042 136.646 90.224 136.982 90.3281 137.305C90.4375 137.622 90.5286 137.911 90.6016 138.172H90.6406C90.724 137.911 90.8177 137.62 90.9219 137.297C91.0312 136.974 91.151 136.641 91.2812 136.297L93.4609 130.508H94.3047L91.0391 139H90.2109ZM96.5078 130.508V139H95.7188V130.508H96.5078ZM96.125 127.367C96.3229 127.367 96.4688 127.427 96.5625 127.547C96.6562 127.661 96.7031 127.818 96.7031 128.016C96.7031 128.214 96.6562 128.37 96.5625 128.484C96.4688 128.599 96.3229 128.656 96.125 128.656C95.9375 128.656 95.7969 128.599 95.7031 128.484C95.6094 128.37 95.5625 128.214 95.5625 128.016C95.5625 127.818 95.6094 127.661 95.7031 127.547C95.7969 127.427 95.9375 127.367 96.125 127.367ZM101.641 138.477C101.885 138.477 102.112 138.458 102.32 138.422C102.534 138.385 102.721 138.339 102.883 138.281V138.938C102.716 138.995 102.521 139.044 102.297 139.086C102.073 139.133 101.826 139.156 101.555 139.156C101.076 139.156 100.677 139.068 100.359 138.891C100.042 138.708 99.8021 138.435 99.6406 138.07C99.4792 137.701 99.3984 137.232 99.3984 136.664V131.164H98.1328V130.695L99.3906 130.453L99.6641 128.453H100.188V130.508H102.836V131.164H100.188V136.617C100.188 137.227 100.299 137.69 100.523 138.008C100.753 138.32 101.125 138.477 101.641 138.477ZM107.922 130.344C108.646 130.344 109.247 130.513 109.727 130.852C110.211 131.19 110.57 131.654 110.805 132.242C111.044 132.831 111.164 133.505 111.164 134.266V134.836H105.031C105.031 136.003 105.299 136.898 105.836 137.523C106.378 138.148 107.151 138.461 108.156 138.461C108.682 138.461 109.138 138.419 109.523 138.336C109.914 138.247 110.346 138.099 110.82 137.891V138.617C110.404 138.805 109.987 138.94 109.57 139.023C109.154 139.112 108.674 139.156 108.133 139.156C107.273 139.156 106.552 138.979 105.969 138.625C105.391 138.266 104.953 137.76 104.656 137.109C104.365 136.458 104.219 135.698 104.219 134.828C104.219 133.979 104.359 133.216 104.641 132.539C104.927 131.862 105.344 131.328 105.891 130.938C106.443 130.542 107.12 130.344 107.922 130.344ZM107.914 131.023C107.102 131.023 106.443 131.294 105.938 131.836C105.438 132.372 105.143 133.148 105.055 134.164H110.344C110.344 133.544 110.255 132.997 110.078 132.523C109.901 132.049 109.633 131.682 109.273 131.422C108.919 131.156 108.466 131.023 107.914 131.023ZM120.734 139.156C119.573 139.156 118.688 138.792 118.078 138.062C117.474 137.328 117.172 136.26 117.172 134.859C117.172 133.391 117.492 132.271 118.133 131.5C118.773 130.729 119.667 130.344 120.812 130.344C121.302 130.344 121.727 130.419 122.086 130.57C122.451 130.721 122.755 130.927 123 131.188C123.25 131.443 123.443 131.734 123.578 132.062H123.641C123.62 131.786 123.604 131.49 123.594 131.172C123.583 130.854 123.578 130.562 123.578 130.297V126.844H124.367V139H123.727L123.625 137.445H123.578C123.438 137.758 123.242 138.044 122.992 138.305C122.747 138.565 122.44 138.773 122.07 138.93C121.701 139.081 121.255 139.156 120.734 139.156ZM120.82 138.469C121.82 138.469 122.531 138.159 122.953 137.539C123.375 136.914 123.586 136.023 123.586 134.867V134.742C123.586 133.544 123.375 132.628 122.953 131.992C122.531 131.352 121.844 131.031 120.891 131.031C119.948 131.031 119.227 131.359 118.727 132.016C118.232 132.672 117.984 133.625 117.984 134.875C117.984 136.052 118.216 136.945 118.68 137.555C119.148 138.164 119.862 138.469 120.82 138.469ZM127.977 130.508V139H127.188V130.508H127.977ZM127.594 127.367C127.792 127.367 127.938 127.427 128.031 127.547C128.125 127.661 128.172 127.818 128.172 128.016C128.172 128.214 128.125 128.37 128.031 128.484C127.938 128.599 127.792 128.656 127.594 128.656C127.406 128.656 127.266 128.599 127.172 128.484C127.078 128.37 127.031 128.214 127.031 128.016C127.031 127.818 127.078 127.661 127.172 127.547C127.266 127.427 127.406 127.367 127.594 127.367ZM133.062 142.844C131.995 142.844 131.164 142.638 130.57 142.227C129.982 141.815 129.688 141.24 129.688 140.5C129.688 139.927 129.867 139.432 130.227 139.016C130.586 138.604 131.073 138.357 131.688 138.273C131.443 138.159 131.242 138.003 131.086 137.805C130.935 137.607 130.859 137.378 130.859 137.117C130.859 136.826 130.951 136.555 131.133 136.305C131.315 136.049 131.589 135.815 131.953 135.602C131.464 135.424 131.078 135.125 130.797 134.703C130.516 134.276 130.375 133.763 130.375 133.164C130.375 132.591 130.497 132.094 130.742 131.672C130.987 131.25 131.333 130.924 131.781 130.695C132.234 130.461 132.768 130.344 133.383 130.344C133.57 130.344 133.74 130.349 133.891 130.359C134.047 130.37 134.19 130.388 134.32 130.414C134.451 130.435 134.568 130.464 134.672 130.5H137.414V131.062L135.664 131.18C135.893 131.456 136.065 131.755 136.18 132.078C136.294 132.396 136.352 132.732 136.352 133.086C136.352 133.93 136.086 134.599 135.555 135.094C135.023 135.589 134.284 135.836 133.336 135.836C133.076 135.836 132.82 135.812 132.57 135.766C132.253 135.953 132.01 136.143 131.844 136.336C131.677 136.523 131.594 136.758 131.594 137.039C131.594 137.216 131.646 137.362 131.75 137.477C131.854 137.586 132.005 137.672 132.203 137.734C132.401 137.792 132.643 137.82 132.93 137.82H134.422C135.344 137.82 136.049 138.008 136.539 138.383C137.029 138.758 137.273 139.31 137.273 140.039C137.273 140.93 136.906 141.62 136.172 142.109C135.443 142.599 134.406 142.844 133.062 142.844ZM133.117 142.18C133.862 142.18 134.482 142.099 134.977 141.938C135.477 141.776 135.852 141.536 136.102 141.219C136.352 140.906 136.477 140.518 136.477 140.055C136.477 139.674 136.385 139.38 136.203 139.172C136.021 138.964 135.763 138.82 135.43 138.742C135.096 138.659 134.703 138.617 134.25 138.617H132.828C132.375 138.617 131.971 138.68 131.617 138.805C131.263 138.924 130.987 139.117 130.789 139.383C130.596 139.648 130.5 140.003 130.5 140.445C130.5 141.013 130.721 141.443 131.164 141.734C131.612 142.031 132.263 142.18 133.117 142.18ZM133.367 135.203C134.07 135.203 134.609 135.026 134.984 134.672C135.359 134.318 135.547 133.805 135.547 133.133C135.547 132.414 135.354 131.875 134.969 131.516C134.583 131.156 134.044 130.977 133.352 130.977C132.68 130.977 132.151 131.169 131.766 131.555C131.385 131.935 131.195 132.471 131.195 133.164C131.195 133.81 131.378 134.312 131.742 134.672C132.107 135.026 132.648 135.203 133.367 135.203ZM139.914 130.508V139H139.125V130.508H139.914ZM139.531 127.367C139.729 127.367 139.875 127.427 139.969 127.547C140.062 127.661 140.109 127.818 140.109 128.016C140.109 128.214 140.062 128.37 139.969 128.484C139.875 128.599 139.729 128.656 139.531 128.656C139.344 128.656 139.203 128.599 139.109 128.484C139.016 128.37 138.969 128.214 138.969 128.016C138.969 127.818 139.016 127.661 139.109 127.547C139.203 127.427 139.344 127.367 139.531 127.367ZM145.047 138.477C145.292 138.477 145.518 138.458 145.727 138.422C145.94 138.385 146.128 138.339 146.289 138.281V138.938C146.122 138.995 145.927 139.044 145.703 139.086C145.479 139.133 145.232 139.156 144.961 139.156C144.482 139.156 144.083 139.068 143.766 138.891C143.448 138.708 143.208 138.435 143.047 138.07C142.885 137.701 142.805 137.232 142.805 136.664V131.164H141.539V130.695L142.797 130.453L143.07 128.453H143.594V130.508H146.242V131.164H143.594V136.617C143.594 137.227 143.706 137.69 143.93 138.008C144.159 138.32 144.531 138.477 145.047 138.477ZM151.078 130.359C152.01 130.359 152.708 130.594 153.172 131.062C153.635 131.531 153.867 132.279 153.867 133.305V139H153.258L153.117 137.516H153.07C152.888 137.833 152.667 138.117 152.406 138.367C152.146 138.612 151.826 138.805 151.445 138.945C151.07 139.086 150.612 139.156 150.07 139.156C149.523 139.156 149.055 139.065 148.664 138.883C148.279 138.701 147.979 138.435 147.766 138.086C147.557 137.737 147.453 137.312 147.453 136.812C147.453 135.969 147.802 135.328 148.5 134.891C149.198 134.448 150.201 134.198 151.508 134.141L153.086 134.062V133.445C153.086 132.576 152.914 131.956 152.57 131.586C152.227 131.216 151.719 131.031 151.047 131.031C150.609 131.031 150.188 131.089 149.781 131.203C149.38 131.312 148.971 131.471 148.555 131.68L148.305 131.023C148.711 130.831 149.146 130.672 149.609 130.547C150.078 130.422 150.568 130.359 151.078 130.359ZM153.078 134.68L151.594 134.742C150.516 134.794 149.695 134.987 149.133 135.32C148.57 135.654 148.289 136.154 148.289 136.82C148.289 137.357 148.456 137.768 148.789 138.055C149.128 138.341 149.596 138.484 150.195 138.484C151.128 138.484 151.839 138.219 152.328 137.688C152.823 137.156 153.073 136.432 153.078 135.516V134.68ZM157.398 139H156.602V126.844H157.398V139ZM168.141 130.344C169.234 130.344 170.081 130.711 170.68 131.445C171.284 132.18 171.586 133.263 171.586 134.695C171.586 135.654 171.443 136.466 171.156 137.133C170.87 137.794 170.461 138.297 169.93 138.641C169.404 138.984 168.771 139.156 168.031 139.156C167.521 139.156 167.076 139.081 166.695 138.93C166.32 138.773 166.008 138.565 165.758 138.305C165.508 138.039 165.315 137.747 165.18 137.43H165.125C165.141 137.727 165.154 138.036 165.164 138.359C165.174 138.682 165.18 138.987 165.18 139.273V142.758H164.383V130.508H165.039L165.133 132.203H165.18C165.32 131.88 165.518 131.576 165.773 131.289C166.029 131.003 166.352 130.773 166.742 130.602C167.133 130.43 167.599 130.344 168.141 130.344ZM168.039 131.039C167.398 131.039 166.865 131.18 166.438 131.461C166.016 131.737 165.701 132.143 165.492 132.68C165.289 133.211 165.185 133.862 165.18 134.633V134.766C165.18 135.594 165.281 136.284 165.484 136.836C165.693 137.383 166.003 137.792 166.414 138.062C166.831 138.333 167.346 138.469 167.961 138.469C168.565 138.469 169.076 138.32 169.492 138.023C169.909 137.727 170.227 137.297 170.445 136.734C170.664 136.172 170.773 135.49 170.773 134.688C170.773 133.495 170.544 132.589 170.086 131.969C169.633 131.349 168.951 131.039 168.039 131.039ZM176.875 130.359C177.807 130.359 178.505 130.594 178.969 131.062C179.432 131.531 179.664 132.279 179.664 133.305V139H179.055L178.914 137.516H178.867C178.685 137.833 178.464 138.117 178.203 138.367C177.943 138.612 177.622 138.805 177.242 138.945C176.867 139.086 176.409 139.156 175.867 139.156C175.32 139.156 174.852 139.065 174.461 138.883C174.076 138.701 173.776 138.435 173.562 138.086C173.354 137.737 173.25 137.312 173.25 136.812C173.25 135.969 173.599 135.328 174.297 134.891C174.995 134.448 175.997 134.198 177.305 134.141L178.883 134.062V133.445C178.883 132.576 178.711 131.956 178.367 131.586C178.023 131.216 177.516 131.031 176.844 131.031C176.406 131.031 175.984 131.089 175.578 131.203C175.177 131.312 174.768 131.471 174.352 131.68L174.102 131.023C174.508 130.831 174.943 130.672 175.406 130.547C175.875 130.422 176.365 130.359 176.875 130.359ZM178.875 134.68L177.391 134.742C176.312 134.794 175.492 134.987 174.93 135.32C174.367 135.654 174.086 136.154 174.086 136.82C174.086 137.357 174.253 137.768 174.586 138.055C174.924 138.341 175.393 138.484 175.992 138.484C176.924 138.484 177.635 138.219 178.125 137.688C178.62 137.156 178.87 136.432 178.875 135.516V134.68ZM185.773 130.359C185.997 130.359 186.208 130.372 186.406 130.398C186.604 130.424 186.789 130.461 186.961 130.508L186.836 131.234C186.664 131.188 186.49 131.154 186.312 131.133C186.135 131.107 185.945 131.094 185.742 131.094C185.341 131.094 184.982 131.169 184.664 131.32C184.352 131.471 184.086 131.688 183.867 131.969C183.648 132.25 183.482 132.589 183.367 132.984C183.253 133.38 183.195 133.823 183.195 134.312V139H182.398V130.508H183.078L183.156 132.109H183.203C183.333 131.781 183.516 131.487 183.75 131.227C183.99 130.961 184.279 130.75 184.617 130.594C184.956 130.438 185.341 130.359 185.773 130.359ZM191.594 130.359C192.526 130.359 193.224 130.594 193.688 131.062C194.151 131.531 194.383 132.279 194.383 133.305V139H193.773L193.633 137.516H193.586C193.404 137.833 193.182 138.117 192.922 138.367C192.661 138.612 192.341 138.805 191.961 138.945C191.586 139.086 191.128 139.156 190.586 139.156C190.039 139.156 189.57 139.065 189.18 138.883C188.794 138.701 188.495 138.435 188.281 138.086C188.073 137.737 187.969 137.312 187.969 136.812C187.969 135.969 188.318 135.328 189.016 134.891C189.714 134.448 190.716 134.198 192.023 134.141L193.602 134.062V133.445C193.602 132.576 193.43 131.956 193.086 131.586C192.742 131.216 192.234 131.031 191.562 131.031C191.125 131.031 190.703 131.089 190.297 131.203C189.896 131.312 189.487 131.471 189.07 131.68L188.82 131.023C189.227 130.831 189.661 130.672 190.125 130.547C190.594 130.422 191.083 130.359 191.594 130.359ZM193.594 134.68L192.109 134.742C191.031 134.794 190.211 134.987 189.648 135.32C189.086 135.654 188.805 136.154 188.805 136.82C188.805 137.357 188.971 137.768 189.305 138.055C189.643 138.341 190.112 138.484 190.711 138.484C191.643 138.484 192.354 138.219 192.844 137.688C193.339 137.156 193.589 136.432 193.594 135.516V134.68ZM208.312 134.742C208.312 135.398 208.232 135.997 208.07 136.539C207.909 137.076 207.669 137.539 207.352 137.93C207.034 138.32 206.638 138.622 206.164 138.836C205.695 139.049 205.148 139.156 204.523 139.156C203.93 139.156 203.401 139.052 202.938 138.844C202.474 138.63 202.081 138.328 201.758 137.938C201.44 137.547 201.198 137.083 201.031 136.547C200.865 136.005 200.781 135.404 200.781 134.742C200.781 133.831 200.932 133.047 201.234 132.391C201.542 131.729 201.979 131.224 202.547 130.875C203.12 130.521 203.805 130.344 204.602 130.344C205.424 130.344 206.109 130.531 206.656 130.906C207.208 131.276 207.622 131.792 207.898 132.453C208.174 133.115 208.312 133.878 208.312 134.742ZM201.594 134.742C201.594 135.487 201.701 136.138 201.914 136.695C202.128 137.253 202.451 137.688 202.883 138C203.32 138.312 203.872 138.469 204.539 138.469C205.221 138.469 205.781 138.312 206.219 138C206.656 137.688 206.979 137.25 207.188 136.688C207.396 136.125 207.5 135.477 207.5 134.742C207.5 134.029 207.401 133.393 207.203 132.836C207.005 132.279 206.693 131.841 206.266 131.523C205.839 131.201 205.281 131.039 204.594 131.039C203.609 131.039 202.862 131.367 202.352 132.023C201.846 132.68 201.594 133.586 201.594 134.742ZM220.125 136.773C220.125 137.279 219.997 137.711 219.742 138.07C219.492 138.424 219.125 138.695 218.641 138.883C218.156 139.065 217.56 139.156 216.852 139.156C216.263 139.156 215.737 139.104 215.273 139C214.81 138.896 214.422 138.768 214.109 138.617V137.836C214.5 138.029 214.932 138.185 215.406 138.305C215.88 138.424 216.367 138.484 216.867 138.484C217.742 138.484 218.372 138.336 218.758 138.039C219.143 137.742 219.336 137.336 219.336 136.82C219.336 136.482 219.24 136.203 219.047 135.984C218.859 135.76 218.589 135.568 218.234 135.406C217.88 135.245 217.453 135.081 216.953 134.914C216.432 134.737 215.969 134.562 215.562 134.391C215.161 134.214 214.846 133.982 214.617 133.695C214.388 133.404 214.273 133.008 214.273 132.508C214.273 131.826 214.547 131.294 215.094 130.914C215.641 130.534 216.375 130.344 217.297 130.344C217.807 130.344 218.281 130.393 218.719 130.492C219.161 130.586 219.562 130.708 219.922 130.859L219.641 131.531C219.318 131.38 218.945 131.258 218.523 131.164C218.102 131.07 217.68 131.023 217.258 131.023C216.565 131.023 216.023 131.146 215.633 131.391C215.242 131.635 215.047 131.995 215.047 132.469C215.047 132.833 215.141 133.12 215.328 133.328C215.516 133.531 215.784 133.703 216.133 133.844C216.482 133.979 216.896 134.13 217.375 134.297C217.87 134.469 218.326 134.648 218.742 134.836C219.164 135.023 219.5 135.266 219.75 135.562C220 135.859 220.125 136.263 220.125 136.773ZM225.484 130.344C226.208 130.344 226.81 130.513 227.289 130.852C227.773 131.19 228.133 131.654 228.367 132.242C228.607 132.831 228.727 133.505 228.727 134.266V134.836H222.594C222.594 136.003 222.862 136.898 223.398 137.523C223.94 138.148 224.714 138.461 225.719 138.461C226.245 138.461 226.701 138.419 227.086 138.336C227.477 138.247 227.909 138.099 228.383 137.891V138.617C227.966 138.805 227.549 138.94 227.133 139.023C226.716 139.112 226.237 139.156 225.695 139.156C224.836 139.156 224.115 138.979 223.531 138.625C222.953 138.266 222.516 137.76 222.219 137.109C221.927 136.458 221.781 135.698 221.781 134.828C221.781 133.979 221.922 133.216 222.203 132.539C222.49 131.862 222.906 131.328 223.453 130.938C224.005 130.542 224.682 130.344 225.484 130.344ZM225.477 131.023C224.664 131.023 224.005 131.294 223.5 131.836C223 132.372 222.706 133.148 222.617 134.164H227.906C227.906 133.544 227.818 132.997 227.641 132.523C227.464 132.049 227.195 131.682 226.836 131.422C226.482 131.156 226.029 131.023 225.477 131.023ZM237.664 130.508V139H237.023L236.906 137.469H236.859C236.714 137.781 236.508 138.065 236.242 138.32C235.977 138.576 235.651 138.779 235.266 138.93C234.88 139.081 234.432 139.156 233.922 139.156C233.271 139.156 232.724 139.044 232.281 138.82C231.844 138.591 231.513 138.247 231.289 137.789C231.065 137.331 230.953 136.758 230.953 136.07V130.508H231.742V135.992C231.742 136.841 231.932 137.466 232.312 137.867C232.698 138.268 233.26 138.469 234 138.469C234.625 138.469 235.148 138.349 235.57 138.109C235.997 137.87 236.32 137.508 236.539 137.023C236.763 136.534 236.875 135.924 236.875 135.195V130.508H237.664ZM247.891 130.344C248.615 130.344 249.216 130.513 249.695 130.852C250.18 131.19 250.539 131.654 250.773 132.242C251.013 132.831 251.133 133.505 251.133 134.266V134.836H245C245 136.003 245.268 136.898 245.805 137.523C246.346 138.148 247.12 138.461 248.125 138.461C248.651 138.461 249.107 138.419 249.492 138.336C249.883 138.247 250.315 138.099 250.789 137.891V138.617C250.372 138.805 249.956 138.94 249.539 139.023C249.122 139.112 248.643 139.156 248.102 139.156C247.242 139.156 246.521 138.979 245.938 138.625C245.359 138.266 244.922 137.76 244.625 137.109C244.333 136.458 244.188 135.698 244.188 134.828C244.188 133.979 244.328 133.216 244.609 132.539C244.896 131.862 245.312 131.328 245.859 130.938C246.411 130.542 247.089 130.344 247.891 130.344ZM247.883 131.023C247.07 131.023 246.411 131.294 245.906 131.836C245.406 132.372 245.112 133.148 245.023 134.164H250.312C250.312 133.544 250.224 132.997 250.047 132.523C249.87 132.049 249.602 131.682 249.242 131.422C248.888 131.156 248.435 131.023 247.883 131.023ZM255.32 139L252.062 130.508H252.898L255.078 136.297C255.214 136.646 255.333 136.982 255.438 137.305C255.547 137.622 255.638 137.911 255.711 138.172H255.75C255.833 137.911 255.927 137.62 256.031 137.297C256.141 136.974 256.26 136.641 256.391 136.297L258.57 130.508H259.414L256.148 139H255.32ZM264.047 130.344C264.771 130.344 265.372 130.513 265.852 130.852C266.336 131.19 266.695 131.654 266.93 132.242C267.169 132.831 267.289 133.505 267.289 134.266V134.836H261.156C261.156 136.003 261.424 136.898 261.961 137.523C262.503 138.148 263.276 138.461 264.281 138.461C264.807 138.461 265.263 138.419 265.648 138.336C266.039 138.247 266.471 138.099 266.945 137.891V138.617C266.529 138.805 266.112 138.94 265.695 139.023C265.279 139.112 264.799 139.156 264.258 139.156C263.398 139.156 262.677 138.979 262.094 138.625C261.516 138.266 261.078 137.76 260.781 137.109C260.49 136.458 260.344 135.698 260.344 134.828C260.344 133.979 260.484 133.216 260.766 132.539C261.052 131.862 261.469 131.328 262.016 130.938C262.568 130.542 263.245 130.344 264.047 130.344ZM264.039 131.023C263.227 131.023 262.568 131.294 262.062 131.836C261.562 132.372 261.268 133.148 261.18 134.164H266.469C266.469 133.544 266.38 132.997 266.203 132.523C266.026 132.049 265.758 131.682 265.398 131.422C265.044 131.156 264.591 131.023 264.039 131.023ZM273.367 130.344C274.32 130.344 275.052 130.594 275.562 131.094C276.073 131.594 276.328 132.378 276.328 133.445V139H275.547V133.492C275.547 132.648 275.354 132.029 274.969 131.633C274.583 131.237 274.023 131.039 273.289 131.039C272.357 131.039 271.643 131.312 271.148 131.859C270.659 132.401 270.414 133.221 270.414 134.32V139H269.625V130.508H270.266L270.383 132.055H270.43C270.581 131.737 270.786 131.451 271.047 131.195C271.312 130.935 271.638 130.729 272.023 130.578C272.409 130.422 272.857 130.344 273.367 130.344ZM281.375 138.477C281.62 138.477 281.846 138.458 282.055 138.422C282.268 138.385 282.456 138.339 282.617 138.281V138.938C282.451 138.995 282.255 139.044 282.031 139.086C281.807 139.133 281.56 139.156 281.289 139.156C280.81 139.156 280.411 139.068 280.094 138.891C279.776 138.708 279.536 138.435 279.375 138.07C279.214 137.701 279.133 137.232 279.133 136.664V131.164H277.867V130.695L279.125 130.453L279.398 128.453H279.922V130.508H282.57V131.164H279.922V136.617C279.922 137.227 280.034 137.69 280.258 138.008C280.487 138.32 280.859 138.477 281.375 138.477ZM291.484 134.742C291.484 135.398 291.404 135.997 291.242 136.539C291.081 137.076 290.841 137.539 290.523 137.93C290.206 138.32 289.81 138.622 289.336 138.836C288.867 139.049 288.32 139.156 287.695 139.156C287.102 139.156 286.573 139.052 286.109 138.844C285.646 138.63 285.253 138.328 284.93 137.938C284.612 137.547 284.37 137.083 284.203 136.547C284.036 136.005 283.953 135.404 283.953 134.742C283.953 133.831 284.104 133.047 284.406 132.391C284.714 131.729 285.151 131.224 285.719 130.875C286.292 130.521 286.977 130.344 287.773 130.344C288.596 130.344 289.281 130.531 289.828 130.906C290.38 131.276 290.794 131.792 291.07 132.453C291.346 133.115 291.484 133.878 291.484 134.742ZM284.766 134.742C284.766 135.487 284.872 136.138 285.086 136.695C285.299 137.253 285.622 137.688 286.055 138C286.492 138.312 287.044 138.469 287.711 138.469C288.393 138.469 288.953 138.312 289.391 138C289.828 137.688 290.151 137.25 290.359 136.688C290.568 136.125 290.672 135.477 290.672 134.742C290.672 134.029 290.573 133.393 290.375 132.836C290.177 132.279 289.865 131.841 289.438 131.523C289.01 131.201 288.453 131.039 287.766 131.039C286.781 131.039 286.034 131.367 285.523 132.023C285.018 132.68 284.766 133.586 284.766 134.742Z" fill="#F9F9F9"/>
<defs>
<clipPath id="clip0_4104_558">
<rect width="45.8507" height="48" fill="white"/>
</clipPath>
</defs>
</svg>
